# xmcd
#
# Track frame offsets: 
#        150
#        21618
#        39242
#        55801
#        77922
#        93629
#        109174
#        129407
#        145085
#        160779
#        179342
#        198545
#        218242
#        233053
#        247136
#        265950
#        283008
#        299600
#        318105
#
# Disc length: 4459 seconds
#
# Revision: 0
# Processed by: cddbd v1.5.2PL0 Copyright (c) Steve Scherf et al.
# Submitted via: ExactAudioCopy v1.0b4
#
DISCID=20116913
DTITLE=Various Artist - Bluesfest 2015 [CD2]
DYEAR=2015
DGENRE=Blues
TTITLE0=George Clinton - Atomic Dog
TTITLE1=Michael Franti and Spearhead - I’m Alive (Life Sounds Like)
TTITLE2=Jimmy Cliff - Guns Of Brixton
TTITLE3=Rodrigo y Gabriela - The Soundmaker
TTITLE4=Donavon Frankenreiter - Don't Change
TTITLE5=Train - Angel in Blue Jeans
TTITLE6=Dispatch - Bang Bang
TTITLE7=Blue King Brown - All Nations
TTITLE8=Trombone Shorty and Orleans - Fire and Brimstone
TTITLE9=Fly My Pretties - Far Away
TTITLE10=John Mayall - A Special Life
TTITLE11=Steve Smyth - South Land
TTITLE12=Skipping Girl Vinegar - Dance Again
TTITLE13=Mariachi El Bronx - New Beat
TTITLE14=SOJA - Tear It Down
TTITLE15=Declan Kelly Presents Dieseln'dub Feat. Emma Donovan - The De
TTITLE15=ad Heart
TTITLE16=Angelique Kidjo - M'Baamba (Kenyan Song)
TTITLE17=Melbourne Ska Orchestra - Get Smart
TTITLE18=Delta Rae - If I Loved You
EXTD=
EXTT0=
EXTT1=
EXTT2=
EXTT3=
EXTT4=
EXTT5=
EXTT6=
EXTT7=
EXTT8=
EXTT9=
EXTT10=
EXTT11=
EXTT12=
EXTT13=
EXTT14=
EXTT15=
EXTT16=
EXTT17=
EXTT18=
PLAYORDER=
